<svg height="1000" width="1000.0" xmlns="http://www.w3.org/2000/svg"><path d="M849 742C840 755 822 756 811 745 802 736 801 723 808 713 858 641 884 551 872 454 851 277 703 137 525 126 291 110 98 312 128 550 149 712 278 844 439 870 548 887 649 858 726 798 737 791 751 791 760 800 771 811 769 829 757 838 669 905 555 939 433 920 249 891 102 741 79 556 43 277 277 43 555 78 747 103 901 259 922 451 934 559 906 661 849 742ZM500 725C514 725 525 714 525 700V525H700C714 525 725 514 725 500S714 475 700 475H525V300C525 286 514 275 500 275S475 286 475 300V475H300C286 475 275 486 275 500S286 525 300 525H475V700C475 714 486 725 500 725Z"/></svg>