<svg height="1000" width="1000.0" xmlns="http://www.w3.org/2000/svg"><path d="M894 116C920 116 938 130 938 153V728C938 757 909 759 900 759H625 599L581 778 500 859 419 778 401 759H375 100C91 759 63 757 63 728V153C63 130 80 116 106 116H894M894 53H106C44 53 0 97 0 153V728C0 784 44 822 100 822H375L500 947 625 822H900C956 822 1000 784 1000 728V153C1000 97 956 53 894 53L894 53ZM544 558L544 527C546 513 550 498 552 493 556 487 562 482 590 462 613 446 625 436 637 421 654 399 663 373 663 344 663 268 599 215 508 215 461 215 419 228 391 252 365 274 351 297 338 340 333 357 343 374 360 379 376 384 393 374 398 358 408 323 416 312 431 300 448 285 476 277 509 277 564 277 601 304 601 344 601 359 596 372 587 383 582 390 577 395 554 411 524 433 511 442 501 457 489 475 484 506 482 523V558C482 576 496 590 513 590S544 576 544 558ZM516 618C498 618 484 632 484 649 484 666 498 680 516 680 533 680 547 666 547 649 547 632 533 618 516 618Z"/></svg>