<svg height="1000" width="1000.0" xmlns="http://www.w3.org/2000/svg"><path d="M967 915C963 915 958 914 954 912 947 908 941 902 938 895 938 894 888 775 740 698 659 656 512 631 445 621V798C445 810 438 822 427 827 416 832 402 830 393 821 250 692 34 497 21 486 20 485 19 484 18 483-2 463-9 427 18 400L394 92C404 85 417 83 428 88 438 94 445 105 445 117V330C445 347 431 361 414 361S383 347 383 330V182L65 442C87 461 154 521 383 728V585C383 576 387 568 393 562 400 556 409 553 418 554 427 555 652 581 769 643 846 683 899 733 935 776 935 772 935 768 935 765 934 705 922 654 896 599 843 484 694 318 584 318 567 318 553 304 553 287S567 256 584 256C738 256 903 465 953 572 983 636 997 695 997 764 997 775 998 791 999 808 1001 893 1002 898 985 910 979 913 973 915 967 915Z"/></svg>