<svg height="1000" width="1000.0" xmlns="http://www.w3.org/2000/svg"><path d="M969 991H31C14 991 0 977 0 959S14 928 31 928H969C986 928 1000 942 1000 959S986 991 969 991ZM219 247V797H113V247H219M219 184H113C78 184 50 212 50 247V797C50 831 78 859 113 859H219C254 859 282 831 282 797V247C282 212 254 184 219 184L219 184ZM553 434V797H447V434H553M553 372H447C412 372 384 400 384 434V797C384 831 412 859 447 859H553C588 859 616 831 616 797V434C616 400 588 372 553 372L553 372ZM887 62V797H781V62H887M887 0H781C746 0 718 28 718 62V797C718 831 746 859 781 859H887C922 859 950 831 950 797V62C950 28 922 0 887 0L887 0Z"/></svg>