<svg height="1000" width="1000.0" xmlns="http://www.w3.org/2000/svg"><path d="M803 150H775C761 150 750 161 750 175V175C750 189 761 200 775 200H797C826 200 850 224 850 253V325H150V247C150 221 171 200 197 200H225C239 200 250 189 250 175V175C250 161 239 150 225 150H197C143 150 100 193 100 247V797C100 854 146 900 203 900H797C854 900 900 854 900 797V247C900 193 857 150 803 150ZM850 797C850 824 824 850 797 850H197C169 850 150 824 150 797V375H850V797ZM700 550H300C286 550 275 539 275 525V525C275 511 286 500 300 500H700C714 500 725 511 725 525V525C725 539 714 550 700 550ZM700 725H300C286 725 275 714 275 700V700C275 686 286 675 300 675H700C714 675 725 686 725 700V700C725 714 714 725 700 725ZM350 250V250C336 250 325 239 325 225V125C325 111 336 100 350 100V100C364 100 375 111 375 125V225C375 239 364 250 350 250ZM650 250V250C636 250 625 239 625 225V125C625 111 636 100 650 100V100C664 100 675 111 675 125V225C675 239 664 250 650 250ZM525 200H475C461 200 450 189 450 175V175C450 161 461 150 475 150H525C539 150 550 161 550 175V175C550 189 539 200 525 200Z"/></svg>