<svg height="1000" width="1000.0" xmlns="http://www.w3.org/2000/svg"><path d="M894 936H106C43 936 0 893 0 830V230C0 172 49 123 106 123H181V186H106C83 186 63 206 63 230V830C63 859 77 873 106 873H894C934 873 938 840 938 830V230C938 209 933 186 894 186H819V123H894C958 123 1000 165 1000 230V830C1000 891 955 936 894 936ZM625 155C625 137 611 123 594 123H406C389 123 375 137 375 155S389 186 406 186H594C611 186 625 172 625 155ZM738 64H675V252H738V64ZM325 64H263V252H325V64ZM331 595H219V658H331V595ZM331 445H219V508H331V445ZM556 445H444V508H556V445ZM556 595H444V658H556V595ZM781 445H669V508H781V445ZM781 595H669V658H781V595Z"/></svg>