<?xml version="1.0" standalone="no"?><!DOCTYPE svg PUBLIC "-//W3C//DTD SVG 1.1//EN" "http://www.w3.org/Graphics/SVG/1.1/DTD/svg11.dtd"><svg t="1481100938722" class="icon" style="" viewBox="0 0 1024 1024" version="1.1" xmlns="http://www.w3.org/2000/svg" p-id="2523" xmlns:xlink="http://www.w3.org/1999/xlink" width="200" height="200"><defs><style type="text/css"></style></defs><path d="M512 544m-96 0a1.5 1.5 0 1 0 192 0 1.5 1.5 0 1 0-192 0Z" p-id="2524"></path><path d="M774.4 288 384 288C384 268.8 371.2 256 352 256l-64 0C268.8 256 256 268.8 256 288L249.6 288c-51.2 0-89.6 38.4-89.6 89.6l0 332.8c0 51.2 38.4 89.6 89.6 89.6l524.8 0c51.2 0 89.6-38.4 89.6-89.6L864 377.6C864 326.4 825.6 288 774.4 288zM512 704c-89.6 0-160-70.4-160-160S422.4 384 512 384s160 70.4 160 160S601.6 704 512 704zM736 448C716.8 448 704 435.2 704 416 704 396.8 716.8 384 736 384 755.2 384 768 396.8 768 416 768 435.2 755.2 448 736 448z" p-id="2525"></path></svg>