<svg height="1000" width="1000.0" xmlns="http://www.w3.org/2000/svg"><path d="M800 300C786 300 775 289 775 275V186C775 178 772 171 766 166 762 163 755 159 745 161L354 225C340 227 328 218 325 204S332 177 346 175L736 112C758 108 780 113 798 128 815 142 825 163 825 186V275C825 289 814 300 800 300ZM840 881C862 862 875 832 875 800V721C875 709 867 699 856 697 832 690 794 673 800 625 804 594 834 582 855 578 867 575 875 565 875 553V450C875 401 842 364 784 350L225 250C203 246 181 252 162 267 139 286 125 318 125 350V700C125 735 140 781 216 800L776 900C780 900 784 901 788 901 807 901 825 894 840 881ZM216 300L774 399C793 404 825 417 825 450V534C784 549 755 583 751 624 745 673 776 719 825 739V800C825 817 818 834 807 843 801 849 793 852 784 850L226 751C181 739 175 719 175 700V350C175 333 183 315 194 305 199 301 205 299 210 299 212 299 214 299 216 300Z"/></svg>