<svg height="1000" width="1000.0" xmlns="http://www.w3.org/2000/svg"><path d="M337 913C338 918 339 924 338 930 338 933 337 935 337 938 335 944 333 949 330 954 327 958 323 963 318 966 314 970 309 972 303 974 300 975 298 975 295 976 292 976 289 977 286 977L278 976C277 976 277 976 276 976 271 975 266 974 260 972 255 971 249 969 243 967 236 965 229 963 222 960 217 958 212 956 207 953 203 952 199 950 196 948 193 947 191 945 188 944 173 935 159 925 147 913 146 911 144 910 143 908 140 906 139 903 137 901 134 898 131 894 129 891 126 886 123 880 121 875 117 868 115 861 113 853 111 846 110 839 109 832 109 830 109 828 109 825 109 824 109 823 109 821 109 819 109 817 109 814 109 805 109 796 109 787 109 775 109 762 109 750 109 718 109 687 109 656 109 605 109 555 109 505 109 476 109 447 109 418 109 412 109 406 109 401 108 400 108 400 108 399 107 398 106 398 106 397 104 395 103 393 101 392 99 390 96 388 94 386 91 384 89 382 86 380 81 376 77 373 72 370 66 367 61 364 55 361 51 358 46 355 41 353 39 352 37 351 35 350 34 350 32 349 31 348L31 348C28 347 26 346 23 344 19 341 14 337 11 333 7 328 5 323 3 318 1 312 0 307 0 301 0 298 0 295 1 292 2 287 4 281 6 276 9 271 13 267 17 263 21 259 26 256 31 254 36 251 42 250 48 249S59 250 64 251C67 252 70 253 73 254 73 254 74 254 74 254 80 257 85 259 90 262 96 265 101 268 106 271 114 275 122 280 130 285 136 289 142 293 147 297 152 300 156 303 160 307 163 309 166 312 169 314 171 316 173 318 175 320 176 321 178 323 179 324 188 334 196 344 202 356 203 358 204 360 205 362 206 364 207 367 208 369 209 373 210 377 210 380 211 384 212 387 212 391 212 392 212 393 212 394 212 395 212 396 212 396 212 398 212 400 212 402 212 407 212 412 212 417 212 462 212 508 212 553 212 570 212 587 212 604 212 635 212 666 212 697 212 717 212 737 212 757 212 772 212 787 212 803 212 807 212 811 212 815 212 817 212 819 212 820 212 821 212 822 212 822 212 823 212 823 212 823 212 824 212 825 212 826 212 827 213 828 213 829 214 832 216 835 218 837 219 839 221 840 222 842 224 844 226 845 228 847 230 848 232 849 233 851 235 852 238 853 240 855 243 856 245 858 248 859 252 861 256 863 260 864 265 866 271 868 276 870 280 871 284 872 288 873 290 873 291 874 293 874 294 874 295 874 296 874H296L304 877 312 880C314 882 317 883 319 885 323 888 327 892 330 897S335 907 337 913ZM1000 179C1000 175 999 172 999 169 999 166 998 164 998 161 995 143 988 126 979 110 978 107 976 105 975 102 972 99 970 95 968 92 965 88 961 83 958 79 950 71 942 63 932 56 930 54 928 53 926 51 924 50 922 48 920 47 908 40 894 34 880 31 878 31 876 30 873 30 871 30 868 30 866 29 864 29 863 29 862 29 689 29 517 29 344 29 341 30 338 30 335 30 333 30 330 31 327 32 322 34 317 37 312 40 308 44 304 48 301 53 298 57 295 63 294 68 292 74 292 80 292 85 293 91 294 96 297 102 299 107 302 112 306 116 308 118 310 120 312 122 317 125 322 128 327 130 330 131 333 131 335 132L344 133H860L860 133C861 133 862 133 863 134 864 134 865 135 866 135 868 136 869 137 870 138 872 140 874 141 875 142 879 146 883 150 886 155 888 159 891 163 893 168 894 170 895 173 896 176 896 179 896 181 897 184 899 391 897 598 897 805 897 806 896 807 896 808 896 810 896 812 895 813 895 816 894 818 893 820 892 823 890 825 888 828 886 831 883 833 880 836 877 839 874 841 871 843 868 845 866 847 864 848 861 850 857 852 854 854 850 856 845 858 841 860 835 863 829 865 823 867 818 868 814 870 809 871 806 872 803 873 799 874 799 874 798 874 798 874 801 873 792 875 790 876 787 877 785 878 782 880 780 881 777 883 775 885 771 888 767 893 764 898 761 903 759 908 758 913S756 925 757 930C757 936 759 942 762 947 764 952 767 957 771 961 775 965 780 968 785 971 790 973 796 975 801 976 804 976 807 976 810 976 813 976 815 975 818 975L818 975 819 975C825 974 830 972 836 971 843 969 850 967 857 964 865 961 873 958 881 955 886 953 892 950 897 947 901 946 905 944 908 942 911 940 914 938 916 937 932 927 947 916 960 902 961 900 963 899 965 897 967 894 969 891 971 888 974 885 977 881 979 877 982 872 985 867 988 861 991 853 994 845 996 837 998 830 999 823 999 815 999 813 1000 810 1000 808 1000 807 1000 806 1000 805 1000 598 1000 391 1000 183 1000 182 1000 180 1000 179ZM761 763L581 806 574 807C571 807 568 807 566 807L558 806 366 763C359 761 358 761 352 758 347 755 343 752 339 748S333 740 331 735C330 733 329 731 328 728 326 722 326 720 326 713V479C326 472 326 470 328 463 330 458 332 453 335 449S342 441 346 438C348 436 351 435 353 433 358 431 363 429 368 428 375 427 377 428 384 428L569 453 741 428 749 427C756 428 758 428 765 430 770 432 775 434 779 438 784 441 788 445 791 449S796 458 798 463C800 470 800 472 800 479V713C800 720 800 721 798 728 796 735 792 742 787 748 783 752 779 755 775 757 769 761 767 761 761 763ZM697 539L577 556 570 557 563 556 429 538V671C476 682 522 692 569 703L697 672V539ZM340 321C343 325 348 328 353 331 358 334 363 336 369 337 372 337 375 337 378 337H764C767 337 770 337 773 337 778 336 784 334 789 331 794 329 798 325 802 321 806 317 809 312 812 307 814 301 815 296 816 290 816 284 816 279 814 273 813 268 811 262 808 258 806 255 804 253 802 251 799 247 794 243 789 240S779 236 773 235C770 234 767 234 764 234H378C375 234 372 234 369 235 363 236 358 238 353 240 348 243 343 247 340 251S333 260 330 265C328 270 327 276 326 281 326 287 326 293 327 298 328 301 329 304 330 306 333 312 336 317 340 321ZM35 108C36 109 36 110 37 110 38 111 38 111 39 112L114 184C115 184 115 185 116 185 117 187 119 188 121 189 126 193 132 195 139 197 141 197 144 198 146 198 147 198 148 198 149 198 149 198 150 198 150 198 150 198 151 198 151 198 152 198 153 198 154 198 155 198 156 197 157 197 162 197 167 195 172 193 177 191 182 187 186 183 189 180 192 176 195 171 197 168 198 165 199 161 200 157 201 153 201 149 201 145 201 141 200 137 200 133 199 129 197 126 195 121 193 117 189 113 189 112 188 111 187 111 186 110 186 110 185 109L110 37C109 37 109 36 108 36 107 35 107 34 106 33 102 30 97 28 93 26 88 25 83 24 78 23 74 23 70 23 66 24 62 25 58 26 54 27 50 29 47 31 43 34 40 36 38 39 35 41 31 46 29 51 26 56 24 62 23 68 23 74 23 81 24 88 27 94 29 99 31 103 35 108Z"/></svg>