<svg height="1000" width="1000.0" xmlns="http://www.w3.org/2000/svg"><path d="M974 327L955 659C944 770 882 857 771 917 674 970 581 988 494 1000 492 1000 491 1000 490 1000 474 1000 461 989 459 973 456 956 468 940 485 938 566 927 653 910 741 862 835 811 884 744 893 654L912 323C912 321 921 195 845 129 796 87 764 76 716 69 675 63 628 63 575 63H406C377 62 297 61 257 74 222 84 161 119 137 170 111 227 108 277 105 321 102 371 88 660 88 660 88 661 83 765 158 817 161 818 218 861 355 861H401C431 745 477 569 501 481 535 371 562 302 652 269 717 244 819 262 830 264L856 269 856 294C856 298 856 393 793 455 741 508 686 516 654 521 637 523 621 512 619 494 616 477 628 462 645 459 681 454 714 446 749 411 776 384 787 347 791 321 756 318 705 316 674 327 615 349 595 387 561 498 536 591 485 786 455 900L449 923H355C193 923 124 869 121 867 18 796 25 662 26 656 26 656 40 367 43 322 46 273 50 211 81 144 115 69 196 27 239 14 298-4 402 0 407 1H575C630 1 680 1 724 7 781 15 826 30 886 82 986 169 975 321 974 327ZM405 508C412 524 430 531 446 525 462 518 469 499 463 484 441 433 411 397 374 377 314 346 248 343 229 343L171 345 173 395C174 448 190 502 213 539 256 606 325 629 364 636 366 636 371 637 373 637 390 637 405 623 405 606S392 574 375 574C347 569 296 553 266 506 250 481 239 443 236 406 257 407 304 411 345 433 369 445 389 470 405 508Z"/></svg>