<svg height="1000" width="1000.0" xmlns="http://www.w3.org/2000/svg"><path d="M887 79C829 28 788 15 733 7 688 1 638 1 579 1H400C400 1 290-4 233 13 195 25 116 65 85 133 54 201 51 262 48 310 45 358 30 665 30 665S22 793 119 860C119 860 184 912 347 912H388C419 792 474 585 500 485 515 427 539 381 561 343 581 309 623 280 635 274 671 254 717 244 773 244 832 244 881 256 881 256L884 257 884 280C884 369 845 442 808 481 762 528 694 545 658 550 656 550 655 550 653 550 638 550 626 538 626 523 625 509 635 497 649 495 676 491 725 479 761 442 823 379 830 317 831 304 824 302 802 299 775 299 743 299 696 304 658 327 651 330 642 336 635 342 633 344 582 388 554 499 524 615 458 864 426 987 425 994 432 1001 440 1000 448 999 456 998 458 998 540 987 655 974 772 910 883 849 939 766 949 664L969 311C970 311 982 161 887 79ZM461 521C458 528 452 533 445 536 442 537 439 537 436 537 425 537 415 531 410 521 388 468 360 433 328 416 279 390 224 382 188 379L186 379 186 381C191 431 206 476 226 507 267 568 339 593 379 602 393 605 402 618 401 632L400 633C399 647 387 658 373 658 371 658 369 658 368 657 320 648 232 621 180 538 149 489 130 420 128 351L127 324 155 323C155 323 158 322 164 322 189 322 276 326 354 367 398 390 434 434 461 499 464 506 464 514 461 521Z"/></svg>