<svg height="1000" width="1000.0" xmlns="http://www.w3.org/2000/svg"><path d="m500 0c-275 0-500 225-500 500s225 500 500 500 500-225 500-500-225-500-500-500z m0 937.5c-243.7 0-437.5-193.70000000000005-437.5-437.5 0-243.7 193.8-437.5 437.5-437.5s437.5 193.8 437.5 437.5c0 243.79999999999995-193.70000000000005 437.5-437.5 437.5z m262.5-212.5c12.5 12.5 12.5 25 0 37.5s-25 12.5-37.5 0l-225-225-225 225c-12.5 12.5-25 12.5-37.5 0-12.5-12.5-12.5-25 0-37.5l225-225-225-225c-12.5-12.5-12.5-25 0-37.5 12.5-12.5 25-12.5 37.5 0l225 225 225-225c12.5-12.5 25-12.5 37.5 0 12.5 12.5 12.5 25 0 37.5l-225 225 225 225z"/></svg>