<svg height="1000" width="1000.0" xmlns="http://www.w3.org/2000/svg"><path d="M398 94C398 100 398 106 398 109V397C394 397 389 397 384 398 371 398 357 399 345 399L94 397V94H398M422 31H70C55 36 36 56 31 70V420C31 444 59 459 70 459L344 461C370 461 400 459 422 459 422 459 422 459 422 459 443 459 461 440 461 420V109C461 65 459 31 422 31L422 31ZM398 602C398 608 398 614 398 617V905C394 905 389 905 384 905 371 906 357 906 345 906L94 904V602H398M422 539H70C55 544 36 564 31 578V928C31 952 59 967 70 967L344 969C370 969 400 967 422 967 422 967 422 967 422 967 443 967 461 948 461 928V617C461 573 459 539 422 539L422 539ZM906 94C906 100 906 106 906 109V397C902 397 897 397 892 397 878 398 865 398 852 398L602 397V94H906M930 31H578C563 36 544 56 539 70V420C539 444 567 459 578 459L852 461C878 461 908 459 930 459 930 459 930 459 930 459 951 459 969 440 969 420V109C969 65 967 31 930 31L930 31ZM969 580C969 580 969 789 969 813H695V619H617C617 619 618 886 617 969H578C535 960 539 903 539 852 539 852 539 613 539 580S565 541 578 541H773V736H890C891 680 890 593 893 539 934 537 966 544 969 580L969 580ZM773 969H695C696 936 692 921 695 891H773V969L773 969ZM969 891V969H890C891 936 887 921 890 891H969L969 891Z"/></svg>