<svg height="1000" width="1000.0" xmlns="http://www.w3.org/2000/svg"><path d="M230 391C260 391 280 411 280 441S260 491 230 491 180 471 180 441 200 391 230 391ZM490 391C520 391 540 411 540 441S520 491 490 491 440 471 440 441 465 391 490 391ZM750 391C780 391 800 411 800 441S780 491 750 491 700 471 700 441 725 391 750 391ZM894 91C934 91 963 116 963 153V728C963 767 931 784 900 784H625 609L598 795 500 894 402 795 391 784H375 100C69 784 38 767 38 728V153C38 116 66 91 106 91H894M894 53H106C44 53 0 97 0 153V728C0 784 44 822 100 822H375L500 947 625 822H900C956 822 1000 784 1000 728V153C1000 97 956 53 894 53L894 53Z"/></svg>