<svg height="1000" width="1000.0" xmlns="http://www.w3.org/2000/svg"><path d="m775 343.8c0 18.69999999999999-12.5 31.19999999999999-31.200000000000045 31.19999999999999h-150c-12.5 0-31.299999999999955-12.5-31.299999999999955-31.19999999999999s18.799999999999955-31.30000000000001 31.299999999999955-31.30000000000001h150c18.700000000000045 0 31.200000000000045 18.80000000000001 31.200000000000045 31.30000000000001z m81.29999999999995-137.5h-262.5c-12.5 0-31.299999999999955 12.5-31.299999999999955 31.19999999999999 0 18.80000000000001 12.5 31.30000000000001 31.299999999999955 31.30000000000001h256.20000000000005c18.799999999999955 0 31.299999999999955-12.5 31.299999999999955-31.30000000000001 6.2000000000000455-18.69999999999999-12.5-31.19999999999999-25-31.19999999999999z m137.5-25v218.7c0 56.30000000000001-43.799999999999955 106.30000000000001-106.29999999999995 106.30000000000001h-193.70000000000005l-93.79999999999995 74.99999999999994c-6.2000000000000455 6.2000000000000455-12.5 12.5-18.700000000000045 12.5-6.2999999999999545 0-6.2999999999999545 0-12.5 0-12.5-12.5-18.799999999999955-18.799999999999955-18.799999999999955-31.299999999999955v-56.19999999999999c-12.5 31.19999999999999-31.200000000000045 62.49999999999994-56.19999999999999 87.49999999999994 99.99999999999994 50 187.49999999999994 143.70000000000005 187.49999999999994 318.70000000000005 0 18.799999999999955-12.5 25-31.299999999999955 25h-612.5c-18.7 0-31.2-6.2000000000000455-31.2-25-8.881784197001252e-16-175 87.5-268.70000000000005 187.5-318.70000000000005-37.5-37.5-62.5-93.79999999999995-62.5-156.29999999999995 0-118.69999999999999 100-212.5 218.7-212.5 43.80000000000001 0 68.80000000000001 12.5 106.30000000000001 31.30000000000001v-75c6.199999999999989-56.30000000000001 50-100.00000000000001 106.19999999999999-100.00000000000001h325c56.299999999999955 0 106.29999999999995 43.7 106.29999999999995 100.00000000000001z m-575 443.7c-12.499999999999943-6.2000000000000455-18.799999999999955-6.2000000000000455-18.799999999999955-18.700000000000045 0-12.5 6.300000000000011-25 18.80000000000001-31.299999999999955 43.69999999999999-18.700000000000045 68.69999999999999-56.200000000000045 81.19999999999999-100-25-18.69999999999999-37.5-43.69999999999999-37.5-75v-81.19999999999999c-31.19999999999999-18.80000000000001-75-31.30000000000001-112.5-31.30000000000001-81.19999999999999 0-156.2 62.5-156.2 150 0 56.30000000000001 31.19999999999999 112.5 81.19999999999999 137.5 12.5 6.2999999999999545 18.80000000000001 18.799999999999955 18.80000000000001 31.299999999999955 0 12.5-12.5 18.700000000000045-25 25-93.80000000000001 25-187.5 125-200 250h550c-12.5-131.29999999999995-106.29999999999995-231.29999999999995-199.99999999999994-256.29999999999995z m512.5-443.7c0-25-18.799999999999955-43.80000000000001-43.799999999999955-43.80000000000001h-325c-25 0-43.700000000000045 18.80000000000001-43.700000000000045 43.80000000000001v218.7c6.2000000000000455 18.80000000000001 18.700000000000045 37.5 43.700000000000045 37.5h18.799999999999955c18.700000000000045 0 31.200000000000045 12.5 31.200000000000045 31.30000000000001v18.69999999999999l50-43.69999999999999c6.2999999999999545 0 12.5-6.300000000000011 18.799999999999955-6.300000000000011h206.20000000000005c25 0 43.799999999999955-18.69999999999999 43.799999999999955-43.69999999999999v-212.5z"/></svg>