<svg height="1000" width="1000.0" xmlns="http://www.w3.org/2000/svg"><path d="M800 300V700C800 755 755 800 700 800H552C551 800 551 800 551 800H550V800C550 800 538 799 533 795 522 786 521 770 529 759 535 753 550 750 550 750V750H700C728 750 750 728 750 700V300C750 272 728 250 700 250H175C147 250 125 272 125 300V700C125 728 147 750 175 750H372L497 902C504 911 505 923 497 933 489 944 473 945 462 937 461 936 460 934 459 933L350 800 175 800C120 800 75 755 75 700V300C75 245 120 200 175 200H700C755 200 800 245 800 300ZM675 400C675 386 664 375 650 375H250C236 375 225 386 225 400S236 425 250 425H650C664 425 675 414 675 400ZM250 525C236 525 225 536 225 550S236 575 250 575H475C489 575 500 564 500 550S489 525 475 525H250ZM750 75H450C436 75 425 86 425 100S436 125 450 125H750C819 125 875 181 875 250V550C875 564 886 575 900 575S925 564 925 550V250C925 153 846 75 750 75Z"/></svg>