<svg height="1000" width="1000.0" xmlns="http://www.w3.org/2000/svg"><path d="m425 962.5c-106.19999999999999 0-212.5-87.5-312.5-262.5-100-168.70000000000005-187.5-362.5 6.299999999999997-475 68.7-37.5 137.5-12.5 168.7 43.80000000000001l43.80000000000001 81.19999999999999c31.19999999999999 56.30000000000001 12.5 131.3-43.80000000000001 162.5-6.199999999999989 0-12.5 6.2999999999999545-18.69999999999999 6.2999999999999545 6.199999999999989 25 18.69999999999999 43.700000000000045 31.19999999999999 62.5 12.5 25 31.30000000000001 43.700000000000045 50 68.70000000000005 6.300000000000011 0 6.300000000000011-6.2000000000000455 12.5-6.2000000000000455 62.5-37.5 137.5-12.5 168.79999999999995 43.700000000000045l43.700000000000045 81.29999999999995c31.299999999999955 56.200000000000045 12.5 131.20000000000005-43.700000000000045 162.5-37.49999999999994 25-68.79999999999995 31.200000000000045-106.29999999999995 31.200000000000045z m-243.7-687.5c-12.5 0-18.80000000000001 0-31.30000000000001 6.300000000000011-118.7 68.69999999999999-112.5 168.7 18.80000000000001 387.49999999999994 87.5 150 175 231.20000000000005 256.2 231.20000000000005 25 0 43.80000000000001-6.2000000000000455 68.80000000000001-18.700000000000045 31.19999999999999-18.799999999999955 37.49999999999994-56.299999999999955 24.999999999999943-81.29999999999995l-43.799999999999955-81.20000000000005c-12.5-25-50-37.5-81.19999999999999-18.799999999999955-6.300000000000011 6.2999999999999545-12.5 12.5-18.80000000000001 18.799999999999955-6.199999999999989 6.2000000000000455-12.5 12.5-25 12.5-6.199999999999989 0-18.69999999999999-6.2999999999999545-25-12.5-37.5-37.5-62.5-75-75-100-18.69999999999999-31.299999999999955-31.19999999999999-62.5-43.69999999999999-106.29999999999995-6.300000000000011-12.5-6.300000000000011-18.69999999999999 0-31.19999999999999s12.5-12.5 25-12.5c6.199999999999989 0 18.69999999999999 0 25-6.300000000000011 31.19999999999999-18.69999999999999 37.5-50 25-81.19999999999999l-50-81.30000000000001c-6.300000000000011-18.69999999999999-25-25-50-25z m406.2 350c-6.2000000000000455 0-6.2000000000000455 0-12.5 0-6.2000000000000455-6.2000000000000455-18.700000000000045-18.700000000000045-18.700000000000045-31.200000000000045v-56.299999999999955c-43.799999999999955-6.2000000000000455-87.49999999999994-50-87.49999999999994-100v-212.5c0-50 49.99999999999994-100 106.19999999999999-100h312.5c56.299999999999955 0 100 43.80000000000001 100 100v212.5c0 56.30000000000001-43.700000000000045 100-100 100h-187.5l-87.5 81.29999999999995c-6.2000000000000455 6.2000000000000455-12.5 6.2000000000000455-25 6.2000000000000455z m-12.5-437.5c-25 0-43.700000000000045 18.80000000000001-43.700000000000045 37.5v212.5c0 18.80000000000001 18.700000000000045 37.5 37.5 37.5h18.700000000000045c18.799999999999955 0 31.299999999999955 12.5 31.299999999999955 31.30000000000001v18.69999999999999l43.700000000000045-43.69999999999999c6.2999999999999545-6.300000000000011 12.5-6.300000000000011 18.799999999999955-6.300000000000011h200c18.700000000000045 0 37.5-18.69999999999999 37.5-37.5v-212.5c0-18.69999999999999-18.799999999999955-37.5-37.5-37.5h-306.29999999999995z m300 93.80000000000001l0 0c0-18.80000000000001-18.700000000000045-31.30000000000001-31.200000000000045-31.30000000000001h-225c-12.5 0-31.299999999999955 12.5-31.299999999999955 31.30000000000001v0c0 18.69999999999999 18.799999999999955 31.19999999999999 31.299999999999955 31.19999999999999h218.70000000000005c18.799999999999955 0 37.5-12.5 37.5-31.19999999999999z m-100 106.19999999999999l0 0c0-18.69999999999999-12.5-31.19999999999999-31.200000000000045-31.19999999999999h-125c-18.799999999999955 0-31.299999999999955 12.5-31.299999999999955 31.19999999999999v0c0 18.80000000000001 12.5 31.30000000000001 31.299999999999955 31.30000000000001h125c18.700000000000045 0 31.200000000000045-12.5 31.200000000000045-31.30000000000001z"/></svg>