<svg height="1000" width="1000.0" xmlns="http://www.w3.org/2000/svg"><path d="M679 323H81C74 323 63 325 63 337V774C63 776 63 782 76 782H285 311L329 801 380 851 431 801 449 782H475 684C697 782 697 776 697 774V337C697 325 686 323 679 323M679 261C726 261 760 294 760 337V774C760 816 726 845 684 845H475L380 940 285 845H76C33 845 0 816 0 774V337C0 294 33 261 81 261H679V261ZM1000 521V155C1000 101 957 60 901 60H400C344 60 301 101 301 155V217H364V155C364 136 378 123 400 123H901C923 123 937 136 937 155V521C937 542 920 549 905 549H808V612H905C959 612 1000 573 1000 521Z"/></svg>