<svg height="1000" width="1000.0" xmlns="http://www.w3.org/2000/svg"><path d="M849 204L771 126C732 87 668 87 629 126L598 157C588 167 588 183 598 193S623 202 633 193L665 161C684 141 716 141 735 161L814 239C833 259 833 291 814 310L380 744 231 595 549 277 632 367C641 377 657 378 667 368 677 359 678 343 669 333L586 243C578 234 567 228 555 227 540 226 525 230 514 241L173 582 99 812 98 817C96 833 102 850 114 862 124 872 137 877 151 877 154 877 156 877 158 877L393 802 849 346C888 307 888 243 849 204ZM151 827C150 827 149 827 149 826S148 825 148 824L206 642 333 769 151 827Z"/></svg>