<?xml version="1.0" standalone="no"?><!DOCTYPE svg PUBLIC "-//W3C//DTD SVG 1.1//EN" "http://www.w3.org/Graphics/SVG/1.1/DTD/svg11.dtd"><svg t="1481100924443" class="icon" style="" viewBox="0 0 1678 1024" version="1.1" xmlns="http://www.w3.org/2000/svg" p-id="2061" xmlns:xlink="http://www.w3.org/1999/xlink" width="327.734375" height="200"><defs><style type="text/css"></style></defs><path d="M705.792 460.992l6.016 116.992L55.488 577.984c-16 0-29.248-4.736-39.744-14.272s-15.744-21.504-15.744-35.968L0 460.992 705.792 460.992z" p-id="2062"></path><path d="M819.776 663.488c3.52-16 9.024-28.032 16.512-35.968s15.232-13.76 23.232-17.28c9.024-3.968 18.752-5.76 29.248-5.248l66.752 0-62.976 280.512c-2.496 9.984-6.528 17.728-12.032 23.232s-11.264 9.472-17.28 12.032c-6.976 3.008-14.528 4.736-22.528 5.248L750.016 926.016c11.52-44.032 22.016-84.224 31.488-120.768 3.968-15.488 8.128-30.976 12.352-46.528s8-29.632 11.264-42.368 6.272-23.872 9.024-33.344S818.752 666.944 819.776 663.488zM924.032 415.232C938.496 421.248 948.16 428.352 952.896 436.608S960.256 452.736 960.768 460.224c0.512 9.024-1.28 18.24-5.248 27.776L925.504 547.2C924.544 550.208 923.264 552.192 921.792 553.216 919.232 555.712 916.288 553.728 912.768 547.2c-1.984-4.992-5.76-9.28-11.264-12.736S888.256 526.72 878.272 521.728C855.744 513.216 839.168 506.688 828.416 502.208S809.984 493.696 805.504 490.24C791.488 484.736 782.144 477.824 777.408 469.568S769.984 453.44 769.536 445.952c-0.512-9.024 1.472-17.728 6.016-26.24l27.008-62.272C803.52 356.48 804.736 355.456 806.272 354.496c1.024-0.512 2.24-0.768 3.776-0.768s3.52 1.28 6.016 3.776c3.52 4.992 7.744 9.344 12.736 13.12s12.48 8.128 22.528 13.12c21.504 9.984 37.888 17.472 49.152 22.528S919.488 414.208 924.032 415.232zM866.24 298.944c-11.008 0-21.248-1.984-30.72-6.016S817.664 283.456 810.368 276.48 797.504 261.44 793.536 252.48 787.52 233.728 787.52 223.232s1.984-20.352 6.016-29.632 9.6-17.344 16.896-24.384 15.616-12.48 25.152-16.512 19.776-6.016 30.72-6.016c9.984 0 19.52 1.984 28.48 6.016S911.616 162.24 918.4 169.216 930.496 184.32 934.528 193.6s6.016 19.136 6.016 29.632S938.496 243.456 934.528 252.48 925.12 269.44 918.4 276.48 903.744 288.96 894.784 292.992 876.288 298.944 866.24 298.944zM1620.736 189.44c16 0 29.504 5.12 40.512 15.36s16.512 22.4 16.512 36.352l0 673.472-112.512 0L1565.248 291.456l-485.248 0c-8 0-15.488-1.344-22.528-4.096s-13.12-6.528-18.368-11.264-9.472-10.112-12.736-16.128-4.864-12.224-4.864-18.752L1021.504 111.488l108.032 0 5.248 78.016L1620.736 189.504zM1318.528 808.192l55.488 0 0 109.504-294.016 0c-8 0-15.488-1.344-22.528-4.096s-13.12-6.4-18.368-10.88-9.472-9.728-12.736-15.744-4.864-12.224-4.864-18.752l0-104.256 113.28 0 0 44.224 72.768 0 0-116.224-173.248 0 0-100.48 173.248 0L1207.552 504.448l-127.488 0c-16 0-29.76-4.864-41.28-14.656s-17.28-21.888-17.28-36.352L1021.504 341.696l108.032 0 5.248 62.272 366.72 0 1.472 100.48-184.512 0 0 86.976 182.976 0 1.472 100.48-184.512 0L1318.4 808.192zM1415.232 767.744l87.744 0 0 150.016-87.744 0L1415.232 767.744z" p-id="2063"></path></svg>