<svg height="1000" width="1000.0" xmlns="http://www.w3.org/2000/svg"><path d="M900 500C900 721 721 900 500 900 457 900 415 893 375 880 362 876 355 862 359 848S378 828 391 833C426 844 463 850 500 850 693 850 850 693 850 500 850 463 844 426 833 391 828 378 835 363 849 359 862 355 876 362 880 375 893 415 900 457 900 500ZM584 584C486 682 387 767 304 824 226 879 181 894 154 894 136 894 126 888 119 881 102 864 89 828 163 715 123 651 100 577 100 500 100 279 279 100 500 100 577 100 652 122 715 163 828 89 864 102 881 119 899 137 913 176 824 304 767 387 682 486 584 584ZM759 195C776 209 791 225 806 243 832 200 845 170 845 157 837 157 813 161 759 195ZM245 808C227 793 210 777 195 759 161 812 156 829 156 850 156 850 156 850 156 850 170 850 201 836 245 808ZM549 551C653 447 728 356 777 287 711 201 609 150 500 150 307 150 150 307 150 500 150 609 202 712 288 778 357 729 446 654 549 551ZM431 500C431 553 389 595 336 595S241 553 241 500 283 405 336 405C389 405 431 447 431 500ZM381 500C381 475 361 455 336 455S291 475 291 500 311 545 336 545C361 545 381 525 381 500Z"/></svg>