<svg height="1000" width="1000.0" xmlns="http://www.w3.org/2000/svg"><path d="M33 916C27 916 21 914 16 911-1 900-1 895 2 809 2 792 3 776 3 765 4 696 17 636 47 572 98 465 262 255 416 255 433 255 447 269 447 286S433 317 416 317C306 317 158 484 104 599 78 654 66 706 65 766 65 769 65 773 65 777 101 734 154 684 231 643 348 582 573 556 582 554 591 553 600 556 607 562 613 568 617 577 617 585V729C847 520 914 460 935 442L617 181V329C617 346 603 360 586 360S555 346 555 329V115C555 103 562 92 573 87 584 82 596 83 606 91L980 398C1009 427 1002 463 982 483 982 484 981 485 980 486 966 497 750 693 607 822 598 831 585 833 573 828 562 823 555 812 555 799V621C488 631 341 656 260 699 113 776 62 895 62 897 59 904 53 910 46 913 42 915 38 916 33 916Z"/></svg>