<svg height="1000" width="1000.0" xmlns="http://www.w3.org/2000/svg"><path d="M500 375C569 375 625 431 625 500S569 625 500 625 375 569 375 500 431 375 500 375M500 312C396 312 313 396 313 500S396 687 500 687 688 604 688 500 604 312 500 312L500 312ZM969 469H905C898 380 863 300 809 236L866 178C878 166 878 147 866 135 854 122 835 122 823 135L765 192C701 137 620 102 531 95V31C531 14 517 0 500 0S469 14 469 31V95C380 102 300 137 236 192L191 146C178 134 159 134 146 146 134 159 134 178 146 191L192 236C137 299 102 380 95 469H31C14 469 0 483 0 500S14 531 31 531H95C102 620 137 701 192 764L134 822C122 834 122 854 134 866 146 878 165 878 178 866L236 808C299 863 380 898 469 905V969C469 986 483 1000 500 1000S531 986 531 969V905C620 898 701 863 764 808L809 854C822 866 841 866 854 854 866 841 866 821 854 809L808 764C863 700 898 620 905 531H969C986 531 1000 517 1000 500S986 469 969 469ZM500 844C310 844 156 689 156 500 156 310 311 156 500 156 690 156 844 310 844 500 844 690 690 844 500 844Z"/></svg>