<svg height="1000" width="1000.0" xmlns="http://www.w3.org/2000/svg"><path d="M425 200H175V450H425V200ZM425 150C452 150 475 173 475 200V450C475 477 452 500 425 500H175C148 500 125 477 125 450V200C125 173 148 150 175 150H425ZM825 200H575V450H825V200ZM825 150C853 150 875 173 875 200V450C875 477 853 500 825 500H575C548 500 525 477 525 450V200C525 173 548 150 575 150H825ZM425 600H175V850H425V600ZM425 550C452 550 475 572 475 600V850C475 877 452 900 425 900H175C148 900 125 877 125 850V600C125 572 148 550 175 550H425ZM825 600H575V850H825V600ZM825 550C853 550 875 572 875 600V850C875 877 853 900 825 900H575C548 900 525 877 525 850V600C525 572 548 550 575 550H825Z"/></svg>