<svg height="1000" width="1000.0" xmlns="http://www.w3.org/2000/svg"><path d="M405 550H45C20 550 0 570 0 595V955C0 980 20 1000 45 1000H405C430 1000 450 980 450 955V595C450 570 430 550 405 550ZM955 550H595C570 550 550 570 550 595V955C550 980 570 1000 595 1000H955C980 1000 1000 980 1000 955V595C1000 570 980 550 955 550ZM955 0H595C570 0 550 20 550 45V405C550 430 570 450 595 450H955C980 450 1000 430 1000 405V45C1000 20 980 0 955 0ZM405 0H45C20 0 0 20 0 45V405C0 430 20 450 45 450H405C430 450 450 430 450 405V45C450 20 430 0 405 0Z"/></svg>