<svg height="1000" width="1000.0" xmlns="http://www.w3.org/2000/svg"><path d="M761 952H386C333 952 310 932 291 915 275 901 262 890 230 890 220 890 211 881 211 871V371C211 362 218 354 227 352 232 352 349 331 378 209 410 76 464 48 504 48 551 48 591 87 610 126 641 189 603 301 582 353H791C912 353 936 432 936 558V777C936 890 874 952 761 952ZM249 853C282 858 300 873 316 887 333 902 347 915 386 915H761C854 915 899 870 899 777V558C899 416 864 390 791 390H554C548 390 542 387 538 382 535 376 534 370 537 364 557 321 603 197 577 143 563 115 535 85 504 85 467 85 435 134 414 218 386 337 288 375 249 386V853ZM101 891V390C101 380 93 372 82 372S64 380 64 390V891C64 901 72 909 82 909S101 901 101 891Z"/></svg>