<svg height="1000" width="1000.0" xmlns="http://www.w3.org/2000/svg"><path d="M813 450V439C813 342 734 128 500 127 499 127 499 127 498 127 407 127 333 155 278 210 210 278 187 373 188 439 188 443 188 446 188 450 71 468 0 539 0 656 0 793 97 873 250 873 250 873 250 797 250 709 250 641 251 521 250 452 250 449 250 446 250 445 250 445 250 445 250 445 250 443 250 441 250 439 250 385 268 309 322 254 365 211 425 189 498 189 499 189 499 189 500 189 706 190 750 390 750 439V445C750 445 750 445 750 445 750 471 750 873 750 873 903 873 1000 793 1000 656 1000 539 929 468 813 450ZM188 805C126 792 63 755 63 656 63 563 122 525 188 513 188 564 188 640 188 710 188 740 188 760 188 760H188C188 776 188 791 188 805ZM812 805C812 792 812 777 812 761 812 761 813 761 813 760V513C878 525 938 563 938 656 938 755 874 792 812 805Z"/></svg>