<svg height="1000" width="1000.0" xmlns="http://www.w3.org/2000/svg"><path d="M916 134C862 79 790 49 714 49 637 49 565 79 510 135L502 144 487 129C434 74 362 44 285 44 209 44 137 74 83 129-28 241-28 424 83 537L480 947C486 953 494 956 503 956 503 956 503 956 503 956 511 956 519 953 525 947L916 543C1028 431 1028 247 916 134ZM872 500L503 880 128 493C41 404 41 261 128 172 170 130 226 106 285 106 345 106 401 130 442 172L480 212C486 219 497 223 503 222 512 222 520 218 526 212L556 178C640 92 788 92 872 178 959 267 959 411 872 500Z"/></svg>