<svg height="1000" width="1000.0" xmlns="http://www.w3.org/2000/svg"><path d="M500 69L875 416V938L650 938C650 897 650 780 650 727 650 673 614 637 561 637H438C373 637 350 684 350 724V938H125L125 418 500 69M500 0C489 0 479 4 470 11L82 372C70 384 63 400 63 416V950C63 985 75 1000 113 1000H363C400 1000 413 985 413 950 413 950 413 786 413 724 413 704 421 700 438 700 471 700 528 700 561 700 579 700 588 707 588 727 588 790 587 944 587 951 588 985 601 1000 638 1000H888C925 1000 938 985 938 950V416C938 400 930 384 918 372L530 11C522 4 511 0 500 0L500 0ZM587 951C587 951 587 952 587 952 587 952 587 951 587 951 587 951 587 951 587 951L587 951Z"/></svg>