<svg height="1000" width="1000.0" xmlns="http://www.w3.org/2000/svg"><path d="M54 122C84 122 108 146 108 176S84 230 54 230 0 206 0 176 24 122 54 122ZM54 446C84 446 108 470 108 500S84 554 54 554 0 530 0 500 24 446 54 446ZM54 770C84 770 108 794 108 824S84 878 54 878 0 854 0 824 24 770 54 770ZM969 207H281C264 207 250 193 250 176S264 144 281 144H969C986 144 1000 158 1000 176S986 207 969 207ZM969 531H281C264 531 250 517 250 500S264 469 281 469H969C986 469 1000 483 1000 500S986 531 969 531ZM969 856H281C264 856 250 842 250 824S264 793 281 793H969C986 793 1000 807 1000 824S986 856 969 856Z"/></svg>