<svg height="1000" width="1000.0" xmlns="http://www.w3.org/2000/svg"><path d="M248 729H436V792H248V729ZM435 355H248V418H435V355ZM248 606H623V544H248V606ZM812 362H815V942C815 984 790 1000 757 1000H114C71 1000 56 967 56 935V191C56 153 79 130 114 130H582V133L812 362ZM582 221V362H723L582 221ZM752 424H582 520V362 192H118V935C118 936 118 937 118 937L752 938V424ZM935 223L721 9C715 3 707 0 699 0H261C211 0 177 36 177 88H239C239 65 251 62 261 62H686L882 258V781C882 799 877 803 859 803V866C912 866 944 833 944 781V245C944 237 941 229 935 223Z"/></svg>