<svg height="1000" width="1000.0" xmlns="http://www.w3.org/2000/svg"><path d="M750 75H250C195 75 150 120 150 175V825C150 880 195 925 250 925H750C805 925 850 880 850 825V175C850 120 805 75 750 75ZM250 125H750C778 125 800 147 800 175V650H200V175C200 147 222 125 250 125ZM750 875H250C222 875 200 853 200 825V700H800V825C800 853 778 875 750 875ZM400 200C400 186 411 175 425 175H575C589 175 600 186 600 200S589 225 575 225H425C411 225 400 214 400 200ZM550 800C550 828 528 850 500 850S450 828 450 800C450 772 472 750 500 750S550 772 550 800Z"/></svg>