<svg height="1000" width="1000.0" xmlns="http://www.w3.org/2000/svg"><path d="M109 938C102 938 81 938 81 903L81 94C81 62 101 62 108 62H457V312H773V250H769L770 249 520 1 520 1V0H108C55 0 18 39 18 94L19 903C19 961 55 1000 109 1000L266 999 265 936 109 938ZM682 250H520V88L682 250ZM527 530H213V467H527V530ZM213 654H340V716H213V654ZM339 340H213V278H339V340ZM968 444L869 345C860 336 848 332 836 332 825 332 813 336 804 345L355 796 314 1000 518 959 969 509C986 491 986 462 968 444ZM487 902L394 920 412 827 837 401 913 477 487 902Z"/></svg>