<svg height="1000" width="1000.0" xmlns="http://www.w3.org/2000/svg"><path d="M875 853C875 867 866 876 852 876S828 867 828 853C828 719 748 604 634 553 630 551 627 550 622 548 606 541 601 520 615 508 617 506 622 501 624 499 664 466 688 417 688 361 688 250 592 161 479 173 395 183 327 250 315 332 306 398 331 459 376 499 376 499 384 507 385 508 399 520 395 541 378 548 375 549 371 551 367 553 268 597 193 691 177 801 174 815 186 829 200 829H734C746 829 758 841 758 853S746 876 734 876H172C146 876 125 853 127 825 137 693 217 579 329 520 289 478 266 422 266 361 266 218 395 103 545 129 638 147 713 222 730 316 744 396 718 469 671 520 793 583 875 708 875 853ZM123 636C157 564 215 520 215 520L233 506 222 487C148 363 216 270 220 265 228 254 226 239 215 230S189 224 180 235C177 239 94 348 168 494 146 514 105 556 78 614 72 627 77 642 89 647 93 649 96 650 100 650 109 650 118 645 123 636ZM911 647C923 642 929 627 923 614 895 556 854 514 832 494 906 348 823 239 820 235 811 224 796 222 785 230S772 254 780 265C783 269 853 362 779 487L767 506 785 520C786 520 843 564 878 636 882 645 891 650 900 650 904 650 907 649 911 647Z"/></svg>