<svg height="1000" width="1000.0" xmlns="http://www.w3.org/2000/svg"><path d="m500 958.3l0 0c253.10000000000002 0 458.29999999999995-205.19999999999993 458.29999999999995-458.29999999999995s-205.19999999999993-458.3-458.29999999999995-458.3-458.3 205.20000000000002-458.3 458.3 205.20000000000002 458.29999999999995 458.3 458.29999999999995l0 0z m0 41.700000000000045l0 0c-276.1 0-500-223.89999999999998-500-500s223.9-500 500-500 500 223.9 500 500-223.89999999999998 500-500 500l0 0z m-82.10000000000002-320.1l0 0 237.10000000000002-172c14.100000000000023-10.199999999999989 14.100000000000023-19.599999999999966 0.10000000000002274-29.599999999999966l-237.10000000000002-170.60000000000002c-6.5-4.599999999999966-7.5-4.800000000000011-4.100000000000023-6.5 3.3000000000000114-1.6999999999999886 2.8000000000000114-0.6999999999999886 2.8000000000000114 7.600000000000023v370.3c0 8.399999999999977 0.4000000000000341 9.399999999999977-3.099999999999966 7.600000000000023-3.5-1.7000000000000455-2.400000000000034-2 4.2999999999999545-6.800000000000068l0 0z m24.400000000000034 33.700000000000045c-37.19999999999999 27-67.30000000000001 11.899999999999977-67.30000000000001-34.5v-370.3c0-46 30.399999999999977-61.5 67.30000000000001-34.900000000000034l237.2 170.5c37.10000000000002 26.80000000000001 36.89999999999998 70.5 0 97.30000000000007l-237.2 171.89999999999998 0 0z"/></svg>