<svg height="1000" width="1000.0" xmlns="http://www.w3.org/2000/svg"><path d="m500 0c-276.2 0-500 223.8-500 500 0 276.29999999999995 223.8 500 500 500s500-223.70000000000005 500-500c0-276.2-223.70000000000005-500-500-500z m0 936.9c-241.2 0-436.9-195.60000000000002-436.9-436.9s195.7-436.9 436.9-436.9 436.9 195.7 436.9 436.9-195.60000000000002 436.9-436.9 436.9z m-125-650v426.20000000000005l305-213.10000000000002-305-213.10000000000002z m62.5 110l147.5 103.10000000000002-147.5 103.10000000000002v-206.20000000000005z"/></svg>