<svg height="1000" width="1000.0" xmlns="http://www.w3.org/2000/svg"><path d="M800 300H699C728 275 759 243 773 210 790 170 779 123 747 96 707 62 647 65 586 104 476 175 475 343 475 350V475H175C161 475 150 464 150 450V400C150 372 173 350 200 350H375C378 350 381 349 384 348 385 348 385 347 386 347 388 346 390 345 391 344 392 343 393 342 393 342 395 340 396 338 397 336 398 335 398 335 398 334 398 334 398 334 398 334 399 333 399 331 399 329S400 327 400 325C400 325 400 325 400 325 400 322 399 320 399 318 398 317 398 316 398 315 397 314 396 313 396 312 395 310 394 308 393 307 392 306 391 306 390 306 388 304 387 303 384 302 384 302 384 302 384 302 341 285 291 245 272 212 268 206 264 189 268 172 272 161 278 152 288 147 303 138 317 136 332 140 366 151 395 195 403 211 409 223 424 229 436 222 448 216 454 201 448 189 446 186 409 111 347 92 319 84 290 87 263 103 241 116 227 135 220 160 212 190 219 221 229 238 241 259 261 281 285 300H200C145 300 100 345 100 400V475C100 497 114 516 134 522 144 526 150 536 150 547V800C150 855 195 900 250 900H750C805 900 850 855 850 800V547C850 536 856 526 866 522 886 515 900 496 900 475V400C900 345 855 300 800 300ZM250 850C223 850 200 827 200 800V550C200 536 211 525 225 525H475V850H250ZM800 800C800 827 778 850 750 850H525V525H775C789 525 800 536 800 550V800ZM850 450C850 464 839 475 825 475H525V350C525 348 526 203 614 146 654 120 692 115 714 134 730 147 735 170 727 190 708 234 637 287 611 304 611 305 610 305 610 306 608 307 607 308 606 309 605 311 604 312 603 313 603 315 602 316 602 318S601 321 601 322C600 323 600 324 600 325 600 326 600 326 600 327 601 329 601 330 601 332 602 334 603 335 603 337 604 337 604 338 604 339 605 339 605 340 606 340 607 342 608 343 609 344 611 345 612 346 613 347 615 347 616 348 618 349S621 349 622 350C623 350 624 350 625 350H800C828 350 850 373 850 400V450Z"/></svg>