<svg height="1000" width="1000.0" xmlns="http://www.w3.org/2000/svg"><path d="M500 725C624 725 725 624 725 500V300C725 176 624 75 500 75S275 176 275 300V500C275 624 376 725 500 725ZM325 300C325 203 404 125 500 125S675 203 675 300V500C675 596 597 675 500 675S325 596 325 500V300ZM525 849V900C525 914 514 925 500 925S475 914 475 900V849C294 836 150 684 150 500 150 486 161 475 175 475S200 486 200 500C200 665 335 800 500 800S800 665 800 500C800 486 811 475 825 475S850 486 850 500C850 685 706 836 525 849Z"/></svg>