<svg height="1000" width="1000.0" xmlns="http://www.w3.org/2000/svg"><path d="M623 345C583 345 583 407 623 407 689 407 755 407 820 407 888 407 953 417 988 345 1008 305 998 250 998 207 998 148 998 90 998 32 998-8 936-8 936 32 936 107 936 182 936 257 850 104 687 0 499 0 223 0-1 224-1 500S223 1000 499 1000C738 1000 938 832 987 608L987 608C987 607 987 606 987 605 987 588 973 574 956 574 942 574 930 584 926 597L926 597C882 792 708 938 499 938 258 938 62 742 62 500 62 258 258 62 499 62 683 62 838 176 903 335 903 344 896 345 881 345S674 345 623 345Z"/></svg>