<svg height="1000" width="1000.0" xmlns="http://www.w3.org/2000/svg"><path d="M836 0H164C112 0 70 42 70 94V906C70 958 112 1000 164 1000H836C888 1000 930 958 930 906V94C930 42 888 0 836 0ZM164 62H836C853 62 867 76 867 94V147H133V94C133 76 147 62 164 62ZM836 938H164C147 938 133 924 133 906V210H867V906C867 924 853 938 836 938ZM756 380C756 397 742 411 725 411H281C264 411 250 397 250 380S264 349 281 349H725C742 349 756 363 756 380ZM756 552C756 569 742 583 725 583H281C264 583 250 569 250 552S264 520 281 520H725C742 520 756 534 756 552ZM756 720C756 738 742 752 725 752H281C264 752 250 738 250 720S264 689 281 689H725C742 689 756 703 756 720Z"/></svg>