<svg height="1000" width="1000.0" xmlns="http://www.w3.org/2000/svg"><path d="M824 650C748 650 685 698 660 765L438 678C445 656 450 633 450 608 450 547 425 491 385 450L572 266C598 287 630 300 666 300 749 300 815 233 815 150 815 67 749 0 666 0 584 0 517 67 517 150 517 183 528 214 546 239L357 426C320 399 275 383 226 383 102 383 2 484 2 608 2 733 102 833 226 833 312 833 386 784 423 713L652 802C651 810 649 817 649 825 649 922 727 1000 824 1000S998 922 998 825C998 728 920 650 824 650ZM666 37C728 37 778 88 778 150S728 262 666 262C604 262 554 212 554 150S604 37 666 37ZM226 796C123 796 40 712 40 608 40 505 123 421 226 421 329 421 413 505 413 608 413 712 329 796 226 796ZM824 963C748 963 687 901 687 825 687 749 748 687 824 687S960 749 960 825C960 901 899 963 824 963Z"/></svg>