<svg height="1000" width="1000.0" xmlns="http://www.w3.org/2000/svg"><path d="M849 742C840 755 822 756 811 745 802 736 801 723 808 713 858 641 884 551 872 454 851 277 703 137 525 126 291 110 98 312 128 550 149 712 278 844 439 870 548 887 649 858 726 798 737 791 751 791 760 800 771 811 769 829 757 838 669 905 555 939 433 920 249 891 102 741 79 556 43 277 277 43 555 78 747 103 901 259 922 451 934 559 906 661 849 742ZM287 553C275 559 270 574 276 586 319 672 404 725 500 725S681 672 724 586C730 574 725 559 713 553 700 546 685 551 679 564 645 632 577 675 500 675S355 632 321 564C315 552 300 546 287 553ZM375 400V350C375 336 364 325 350 325S325 336 325 350V400C325 414 336 425 350 425S375 414 375 400ZM675 400V350C675 336 664 325 650 325S625 336 625 350V400C625 414 636 425 650 425S675 414 675 400Z"/></svg>