<svg height="1000" width="1000.0" xmlns="http://www.w3.org/2000/svg"><path d="M462 0C456 0 451 5 451 11L451 194 451 194C451 200 456 205 462 205L531 205C532 205 532 205 532 205 539 205 544 200 544 194L544 11 544 11C544 5 539 0 532 0L463 0C463 0 463 0 462 0ZM712 47C708 46 704 49 702 52L611 210 611 210C607 216 609 223 615 226L675 261C675 261 675 261 675 261 681 264 688 262 691 257L782 99C785 93 784 86 778 83L717 48C716 47 714 47 712 47ZM284 49C282 49 280 50 278 51L217 86C212 89 210 96 213 102L304 259C304 259 304 259 304 259 307 265 314 267 320 264L381 229C386 225 388 218 385 213L294 56C294 55 294 55 294 55 292 51 288 49 284 49ZM904 212C902 212 900 212 898 213L741 304C741 304 741 304 741 304 735 307 733 314 736 320L771 381C775 386 782 388 787 385L944 294C945 294 945 294 945 294 951 291 952 284 949 278L914 217C912 214 908 212 904 212ZM94 216C89 216 85 218 83 222L48 283C45 288 47 295 52 298L210 390 210 390C216 393 223 391 226 385L261 325C261 325 261 325 261 325 264 319 262 312 257 309L99 218C97 217 95 216 94 216ZM806 451L806 451C800 451 795 456 795 462L795 531C795 532 795 532 795 532 795 539 800 544 806 544L989 544 989 544C995 544 1000 539 1000 532L1000 463C1000 463 1000 463 1000 462 1000 456 995 451 989 451L806 451ZM12 456L12 456C5 456 0 461 0 468L0 537C0 537 0 537 0 538 0 544 5 549 12 549L194 549 194 549C200 549 205 544 205 538L205 469C205 468 205 468 205 468 205 461 200 456 194 456L12 456ZM784 609C780 609 776 611 774 615L740 675C739 675 739 675 739 675 736 681 738 688 743 691L901 782C907 785 914 784 917 778L952 717C955 712 953 705 948 702L790 611 790 611C788 610 786 609 784 609ZM218 614C217 614 215 614 213 615L56 706C56 706 55 706 55 706 50 709 48 717 51 722L86 783C89 788 96 790 102 787L259 696C259 696 259 696 259 696 265 693 267 686 264 680L229 619C226 616 222 614 218 614ZM686 735C684 735 682 735 680 736L619 771C614 775 612 782 615 787L706 944C706 945 706 945 706 945 709 951 717 952 722 949L783 914C788 911 790 904 787 898L696 741C696 741 696 741 696 741 694 737 690 735 686 735ZM319 738C315 737 311 740 309 743L218 901C215 907 217 914 222 917L283 952C288 955 295 953 298 948L390 790 390 790C393 784 391 777 385 774L325 740C325 739 325 739 325 739 323 738 321 738 319 738ZM468 795C461 795 456 800 456 806L456 989 456 989C456 995 461 1000 468 1000L537 1000C537 1000 537 1000 538 1000 544 1000 549 995 549 989L549 806 549 806C549 800 544 795 538 795L469 795C468 795 468 795 468 795Z"/></svg>