<svg height="1000" width="1000.0" xmlns="http://www.w3.org/2000/svg"><path d="m462.3 0c-6.400000000000034 0-11.600000000000023 5.2-11.600000000000023 11.5l0 182.3 0.10000000000002274 0c0 6.299999999999983 5.099999999999966 11.5 11.5 11.5l68.99999999999994 0c0.40000000000009095 0 0.7000000000000455 0 1 0 6.400000000000091 0 11.600000000000023-5.200000000000017 11.600000000000023-11.5l0-182.3-0.10000000000002274 0c0-6.3-5.099999999999909-11.5-11.5-11.5l-69.09999999999997 0c-0.30000000000001137 0-0.5999999999999659 0-1 0z m249.49999999999994 46.6c-4-0.10000000000000142-8 2-10.199999999999932 5.699999999999996l-91.10000000000002 157.8 0 0.0999999999999659c-3.2000000000000455 5.5-1.2999999999999545 12.5 4.2000000000000455 15.700000000000017l60.09999999999991 34.599999999999994c0.20000000000004547 0.19999999999998863 0.40000000000009095 0.30000000000001137 0.6000000000000227 0.39999999999997726 5.5 3.2000000000000455 12.5 1.3000000000000114 15.700000000000045-4.199999999999989l91.10000000000002-157.79999999999998c3.199999999999932-5.5 1.2999999999999545-12.5-4.2000000000000455-15.700000000000003l-60.700000000000045-35.1c-1.6999999999999318-1-3.599999999999909-1.5-5.5-1.5z m-428.29999999999995 2.6999999999999957c-1.8999999999999773 0-3.8000000000000114 0.5-5.5 1.5l-60.69999999999999 35.10000000000001c-5.5 3.1999999999999886-7.400000000000006 10.199999999999989-4.200000000000017 15.699999999999989l90.79999999999998 157.20000000000002c0.10000000000002274 0.19999999999998863 0.20000000000004547 0.39999999999997726 0.30000000000001137 0.5999999999999659 3.1999999999999886 5.5 10.199999999999989 7.400000000000034 15.699999999999989 4.2000000000000455l60.80000000000001-35.00000000000003c5.400000000000034-3.1999999999999886 7.300000000000011-10.199999999999989 4.100000000000023-15.699999999999989l-90.69999999999999-157.2c-0.10000000000002274-0.20000000000001705-0.20000000000004547-0.5000000000000142-0.30000000000001137-0.700000000000017-2.1999999999999886-3.700000000000003-6.199999999999989-5.799999999999997-10.300000000000011-5.700000000000003z m620.3 162.3c-1.7999999999999545-2.842170943040401e-14-3.699999999999932 0.4999999999999716-5.399999999999977 1.4999999999999716l-157.19999999999993 90.79999999999998c-0.20000000000004547 0.10000000000002274-0.40000000000009095 0.20000000000004547-0.6000000000000227 0.30000000000001137-5.5 3.1999999999999886-7.399999999999977 10.199999999999989-4.2000000000000455 15.699999999999989l35 60.80000000000001c3.2000000000000455 5.400000000000034 10.200000000000045 7.300000000000011 15.700000000000045 4.100000000000023l157.19999999999993-90.69999999999999c0.20000000000004547-0.10000000000002274 0.5-0.20000000000004547 0.7000000000000455-0.30000000000001137 5.5-3.1999999999999886 7.2999999999999545-10.300000000000011 4.2000000000000455-15.800000000000011l-35.10000000000002-60.69999999999999c-2.2000000000000455-3.8000000000000114-6.2000000000000455-5.800000000000011-10.300000000000068-5.700000000000017z m-810.3 4.699999999999989c-4.099999999999994-0.20000000000001705-8.099999999999994 1.8999999999999773-10.299999999999997 5.699999999999989l-35.1 60.69999999999999c-3.200000000000003 5.5-1.3000000000000043 12.600000000000023 4.199999999999996 15.699999999999989l157.8 91.10000000000002 0.0999999999999659 0c5.5 3.1999999999999886 12.5 1.3000000000000114 15.700000000000017-4.199999999999989l34.599999999999994-60c0.19999999999998863-0.30000000000001137 0.30000000000001137-0.5 0.39999999999997726-0.6999999999999886 3.2000000000000455-5.5 1.3000000000000114-12.5-4.199999999999989-15.700000000000045l-157.79999999999998-91.09999999999997c-1.7000000000000028-1-3.6000000000000085-1.5-5.400000000000006-1.5z m712.8 234.39999999999998l0 0.10000000000002274c-6.399999999999977 0-11.5 5.099999999999966-11.5 11.5l0 68.99999999999994c-0.09999999999990905 0.40000000000009095-0.09999999999990905 0.7000000000000455-0.09999999999990905 1 0 6.400000000000091 5.199999999999932 11.600000000000023 11.599999999999909 11.600000000000023l182.20000000000005 0 0-0.10000000000002274c6.2999999999999545 0 11.5-5.099999999999909 11.5-11.5l0-68.99999999999994c0-0.4000000000000341 0-0.6999999999999886 0-1 0-6.400000000000034-5.2000000000000455-11.600000000000023-11.5-11.600000000000023l-182.20000000000005 0z m-794.8 5.400000000000034l0 0.0999999999999659c-6.3 0-11.5 5.100000000000023-11.5 11.5l0 69.09999999999997c0 0.3000000000000682 0 0.6000000000000227 0 1 0 6.300000000000068 5.2 11.5 11.5 11.5l182.2 0 0 0c6.400000000000006 0 11.5-5.199999999999932 11.5-11.5l0-69.09999999999997c0.10000000000002274-0.39999999999997726 0.10000000000002274-0.6999999999999886 0.10000000000002274-1 0-6.399999999999977-5.200000000000017-11.599999999999966-11.600000000000023-11.599999999999966l-182.2 0z m772.9 152.79999999999995c-4.100000000000023-0.10000000000002274-8.100000000000023 2-10.299999999999955 5.800000000000068l-34.60000000000002 60.09999999999991c-0.20000000000004547 0.20000000000004547-0.2999999999999545 0.40000000000009095-0.39999999999997726 0.6000000000000227-3.2000000000000455 5.5-1.3000000000000682 12.5 4.199999999999932 15.700000000000045l157.80000000000007 91.10000000000002c5.5 3.199999999999932 12.5 1.2999999999999545 15.699999999999932-4.2000000000000455l35.10000000000002-60.700000000000045c3.2000000000000455-5.5 1.3000000000000682-12.599999999999909-4.199999999999932-15.699999999999932l-157.80000000000007-91.10000000000002-0.10000000000002274 0c-1.6999999999999318-1-3.599999999999909-1.5-5.399999999999977-1.6000000000000227z m-566.0999999999999 4.7000000000000455c-1.8000000000000682 0.10000000000002274-3.700000000000074 0.6000000000000227-5.4000000000000625 1.6000000000000227l-157.2 90.69999999999993c-0.20000000000001705 0.10000000000002274-0.5000000000000142 0.20000000000004547-0.700000000000017 0.39999999999997726-5.5 3.1000000000000227-7.299999999999997 10.200000000000045-4.200000000000003 15.700000000000045l35.10000000000001 60.700000000000045c3.1999999999999886 5.5 10.199999999999989 7.399999999999977 15.699999999999989 4.199999999999932l157.20000000000002-90.79999999999995c0.19999999999998863-0.10000000000002274 0.39999999999997726-0.20000000000004547 0.5999999999999659-0.3000000000000682 5.5-3.199999999999932 7.400000000000034-10.199999999999932 4.2000000000000455-15.699999999999932l-35.00000000000003-60.80000000000007c-2.1999999999999886-3.699999999999932-6.199999999999989-5.7999999999999545-10.299999999999983-5.699999999999932z m467.19999999999993 121.19999999999993c-1.8999999999999773 0.10000000000002274-3.7000000000000455 0.6000000000000227-5.399999999999977 1.6000000000000227l-60.80000000000007 35c-5.399999999999977 3.2000000000000455-7.2999999999999545 10.200000000000045-4.099999999999909 15.700000000000045l90.69999999999993 157.19999999999993c0.10000000000002274 0.20000000000004547 0.20000000000004547 0.5 0.3000000000000682 0.7000000000000455 3.199999999999932 5.5 10.299999999999955 7.2999999999999545 15.799999999999955 4.2000000000000455l60.700000000000045-35.10000000000002c5.5-3.2000000000000455 7.399999999999977-10.200000000000045 4.199999999999932-15.700000000000045l-90.79999999999995-157.19999999999993c-0.10000000000002274-0.20000000000004547-0.20000000000004547-0.40000000000009095-0.3000000000000682-0.6000000000000227-2.199999999999932-3.800000000000068-6.199999999999932-5.899999999999977-10.299999999999955-5.800000000000068z m-366.3 2.7000000000000455c-4.099999999999966-0.10000000000002274-8.099999999999966 2-10.300000000000011 5.7999999999999545l-91.09999999999997 157.80000000000007c-3.200000000000017 5.5-1.3000000000000114 12.5 4.199999999999989 15.699999999999932l60.69999999999999 35.10000000000002c5.5 3.2000000000000455 12.600000000000023 1.3000000000000682 15.699999999999989-4.199999999999932l91.10000000000002-157.80000000000007 0-0.10000000000002274c3.1999999999999886-5.5 1.3000000000000114-12.5-4.199999999999989-15.699999999999932l-60-34.60000000000002c-0.30000000000001137-0.20000000000004547-0.5-0.2999999999999545-0.6999999999999886-0.39999999999997726-1.7000000000000455-1-3.6000000000000227-1.5-5.400000000000034-1.6000000000000227z m148.5 57.200000000000045c-6.399999999999977 0-11.599999999999966 5.199999999999932-11.599999999999966 11.599999999999909l0 182.20000000000005 0.0999999999999659 0c0 6.2999999999999545 5.100000000000023 11.5 11.5 11.5l69.09999999999997 0c0.3000000000000682 0 0.6000000000000227 0 1 0 6.300000000000068 0 11.5-5.2000000000000455 11.5-11.5l0-182.20000000000005 0 0c0-6.399999999999977-5.199999999999932-11.5-11.5-11.5l-69.09999999999997 0c-0.39999999999997726-0.09999999999990905-0.6999999999999886-0.09999999999990905-1-0.09999999999990905z"/></svg>