<svg height="1000" width="1000.0" xmlns="http://www.w3.org/2000/svg"><path d="M500 96L602 326 615 356 647 362 914 415 729 600 705 624 712 657 763 921 525 815 500 804 475 815 237 921 288 657 295 624 271 600 86 415 353 362 385 356 398 326 500 96M500 0C484 0 470 9 464 24L341 301 32 363C17 365 6 376 2 390-3 404 1 419 12 429L227 644 167 952C164 967 168 982 179 991 186 997 195 1000 204 1000 210 1000 215 999 220 996L500 872 780 997C785 999 790 1000 796 1000 805 1000 814 997 821 991 832 982 836 967 833 952L773 645 988 430C999 419 1003 404 998 390 994 376 983 366 968 363L659 301 536 23C530 9 516 0 500 0L500 0Z"/></svg>