<svg height="1000" width="1000.0" xmlns="http://www.w3.org/2000/svg"><path d="M896 0L104 0C104 0 104 0 104 0 74 0 50 24 50 54L50 945C50 975 74 1000 104 1000 104 1000 433 1000 654 1000V1000C671 1000 685 986 685 969S671 937 654 937C654 937 654 937 654 937L112 937 113 62 559 63V471C559 483 566 495 578 500 590 505 603 502 612 493L690 415 768 493C774 499 782 502 790 502 794 502 798 501 802 500 814 495 821 483 821 471V63L888 63 887 938 829 938C829 938 828 937 828 937 811 937 797 951 797 969 797 986 811 1000 828 1000V1000L896 1000C896 1000 896 1000 896 1000 926 1000 950 976 950 946L950 55C950 25 926 0 896 0ZM759 395L712 349C700 337 680 337 668 349L621 395V63L759 63V395Z"/></svg>