<svg height="1000" width="1000.0" xmlns="http://www.w3.org/2000/svg"><path d="M714 329C725 336 729 352 721 363L475 688C471 695 464 699 457 700 456 700 455 700 454 700 448 700 442 698 437 693L283 528C273 519 272 503 282 493S307 482 317 492L449 636 679 336C686 325 702 321 714 329ZM922 451C901 259 747 103 555 78 277 44 43 278 79 556 102 741 249 892 433 920 555 939 669 905 757 838 769 829 771 811 760 800 751 791 737 791 726 798 649 858 548 887 439 870 278 845 149 712 128 550 98 312 290 110 525 126 703 137 851 277 872 454 884 551 858 641 808 713 801 723 802 736 811 745 822 756 840 755 849 742 906 661 934 560 922 451Z"/></svg>