<svg height="1000" width="1000.0" xmlns="http://www.w3.org/2000/svg"><path d="m500 75c-234.7 0-425 190.3-425 425s190.3 425 425 425 425-190.29999999999995 425-425-190.29999999999995-425-425-425z m221 288.5l-246 325c-4 6.2999999999999545-10.600000000000023 10.399999999999977-18 11.299999999999955-1 0.10000000000002274-2 0.20000000000004547-3 0.20000000000004547-6.399999999999977 0-12.5-2.3999999999999773-17.19999999999999-6.7999999999999545l-154-165c-10-9.400000000000091-10.5-25.300000000000068-1-35.30000000000007s25.30000000000001-10.599999999999966 35.30000000000001-1.099999999999966l132.09999999999997 144.40000000000003 229.7-299.70000000000005c7.5-11.600000000000023 22.899999999999977-15 34.60000000000002-7.5 11.600000000000023 7.399999999999977 15 22.899999999999977 7.5 34.5z"/></svg>