<svg height="1000" width="1000.0" xmlns="http://www.w3.org/2000/svg"><path d="m442.8 507.1c-0.6000000000000227-2.400000000000034-1.400000000000034-4.600000000000023-1.400000000000034-7.100000000000023v-304.4c0-17.30000000000001 14-31.30000000000001 31.200000000000045-31.30000000000001s31.299999999999955 14 31.299999999999955 31.299999999999983v304.4c0 0.39999999999997726-0.2999999999999545 0.8000000000000114-0.2999999999999545 1.1999999999999886l206.5 206.50000000000006c12.199999999999932 12.199999999999932 12.199999999999932 32 0 44.19999999999993-6.100000000000023 6.100000000000023-14.100000000000023 9.100000000000023-22.100000000000023 9.100000000000023s-16-3.1000000000000227-22.100000000000023-9.100000000000023l-215.39999999999998-215.5c-8-8-10.199999999999989-19.100000000000023-7.699999999999989-29.299999999999955z m53-507.1c-177.5 0-339.5 94.4-429 244.3v-153.4c-1.4210854715202004e-14-17.30000000000001-14.000000000000014-31.300000000000004-31.20000000000001-31.300000000000004s-31.3 13.999999999999993-31.3 31.300000000000004v255.70000000000002c-8.881784197001252e-16 17.299999999999955 14 31.299999999999955 31.3 31.299999999999955h255.70000000000002c17.19999999999999 0 31.19999999999999-14 31.19999999999999-31.299999999999955s-14-31.200000000000045-31.19999999999999-31.200000000000045h-191.60000000000002c71.70000000000002-153.79999999999998 225.8-252.89999999999998 396.1-252.89999999999998 241.09999999999997 0 437.49999999999994 196.3 437.49999999999994 437.5s-196.39999999999998 437.5-437.49999999999994 437.5c-209.10000000000002 0-389.70000000000005-148.70000000000005-429.5-353.70000000000005-3.400000000000013-16.899999999999977-20.000000000000014-27.899999999999977-36.70000000000001-24.699999999999932-16.900000000000002 3.2999999999999545-28 19.699999999999932-24.700000000000003 36.69999999999993 45.5 234.10000000000002 251.9 404.20000000000005 490.90000000000003 404.20000000000005 275.59999999999997 0 499.99999999999994-224.29999999999995 499.99999999999994-500s-224.39999999999998-500-499.99999999999994-500z"/></svg>