<svg height="1000" width="1000.0" xmlns="http://www.w3.org/2000/svg"><path d="M500 938C259 938 63 741 63 500 63 259 259 62 500 62 741 62 938 259 938 500 938 741 741 938 500 938M500 0C224 0 0 224 0 500 0 776 224 1000 500 1000 776 1000 1000 776 1000 500 1000 224 776 0 500 0M500 687C463 687 438 712 438 750 438 781 463 812 500 812 538 812 563 787 563 750 563 719 538 687 500 687M652 264C636 240 613 221 588 207 582 204 575 201 569 199 561 196 554 194 550 193 535 190 523 188 509 188 483 186 457 189 434 198 410 206 390 219 374 233 341 263 325 298 319 323 317 331 316 337 315 343 314 347 314 350 314 353 313 358 313 361 313 361 313 363 313 364 313 366 312 392 333 413 359 413 385 413 406 392 406 366 406 366 406 364 406 358 406 356 407 353 407 349 407 347 407 345 407 343 409 330 415 310 431 292 447 275 473 259 506 259 513 260 522 262 529 264 535 266 538 267 540 268 544 270 547 272 551 274 564 283 576 295 584 309 592 323 596 337 597 354 597 369 596 384 591 398 586 411 578 423 569 433 558 444 552 446 532 460 495 485 475 520 468 546 465 554 465 555 463 567 463 571 463 574 463 577 462 582 462 585 462 585 461 605 476 623 496 625 517 627 536 612 538 592 538 592 539 589 539 583 540 581 540 578 540 574 540 578 541 571 542 569 546 558 557 542 577 530 586 527 613 511 629 494 648 477 663 454 673 428 683 402 688 374 683 344 680 317 669 287 652 264"/></svg>