<svg height="1000" width="1000.0" xmlns="http://www.w3.org/2000/svg"><path d="m499.9 62.5c129.30000000000007 0 234.5 105.19999999999999 234.5 234.39999999999998 0 70.30000000000001-31.100000000000023 136.20000000000005-85.39999999999998 181-16.899999999999977 13.900000000000034-25.200000000000045 35.60000000000002-22.100000000000023 57.30000000000007 3.2000000000000455 21.59999999999991 17.5 40.09999999999991 37.700000000000045 48.59999999999991 144.5 60.80000000000007 243.69999999999993 195 258.69999999999993 350.30000000000007 0.10000000000002274 1.2999999999999545 0.20000000000004547 2.3999999999999773 0.3000000000000682 3.5h-847.3000000000001c0.10000000000005116-1.7000000000000455 0.4000000000000483-3.7000000000000455 0.6000000000000512-6 15.899999999999991-154.20000000000005 114.9-287.5 258.5-347.80000000000007 20.200000000000045-8.5 34.5-26.899999999999977 37.700000000000045-48.59999999999991 3.1999999999999886-21.600000000000023-5.2000000000000455-43.400000000000034-22.100000000000023-57.30000000000007-54.39999999999998-44.799999999999955-85.5-110.69999999999999-85.5-181 0-129.2 105.19999999999999-234.39999999999998 234.39999999999998-234.39999999999998m0-62.5c-164 0-296.9 132.9-296.9 296.9 0 92.30000000000001 42.099999999999994 174.70000000000005 108.10000000000002 229.20000000000005-160.8 67.69999999999993-277.8 218.60000000000002-296.40000000000003 399.1-1.6999999999999886 16.59999999999991-2.599999999999989 9-2.599999999999989 26 0 26.699999999999932 24 48.799999999999955 48.8 48.799999999999955 102.9 0 687.2 0 878 0 18.5 0 48-26.200000000000045 48.700000000000045-48.799999999999955 0.6000000000000227-16.100000000000023-0.7000000000000455-7.5-2.300000000000068-23.200000000000045-17.5-181.70000000000005-135-333.9-296.69999999999993-401.9 66-54.5 108.19999999999993-136.90000000000003 108.19999999999993-229.20000000000005 0.10000000000002274-163.99999999999997-132.89999999999998-296.9-296.9-296.9l0 0z"/></svg>