<svg height="1000" width="1000.0" xmlns="http://www.w3.org/2000/svg"><path d="M727 883C711 883 698 870 698 854 698 724 622 606 504 555 493 553 486 545 484 534 481 523 486 513 494 505 538 468 561 417 561 362 561 259 479 176 378 176 277 176 195 259 195 362 195 412 218 460 262 505 263 506 264 507 264 508 268 512 270 517 271 522 274 535 267 549 254 555 136 605 59 722 59 852 58 868 45 883 29 882 13 882 0 870 0 854 1 712 76 585 195 518 157 470 137 416 137 362 137 227 245 117 378 117S620 227 620 362C620 420 600 476 563 519 682 587 757 714 757 854 757 870 743 883 727 883ZM971 883C955 883 941 870 941 854 941 731 870 620 759 572 748 569 741 562 739 551S741 529 749 522C790 487 812 438 812 386 812 294 746 211 674 211 658 211 645 198 645 182S658 152 674 152C779 152 871 262 871 386 871 441 852 494 818 536 930 600 1000 721 1000 854 1000 870 987 883 971 883Z"/></svg>