<svg height="1000" width="1000.0" xmlns="http://www.w3.org/2000/svg"><path d="M429 64C507 64 583 97 641 158 754 274 780 382 726 510 708 552 708 552 920 759 928 767 964 810 903 871L866 907C847 926 827 936 804 936 780 936 758 925 750 920L574 744C562 732 546 726 530 726 520 726 510 728 501 732 458 754 419 765 384 765 325 765 266 736 182 664 109 602 66 520 63 433 61 393 69 354 84 322L250 488C256 494 290 525 339 525 363 525 397 518 431 484L485 430C487 429 488 427 489 426 519 389 543 313 483 254 457 228 373 144 318 89 350 73 389 64 429 64M429 2C346 2 270 32 221 80 221 80 398 257 439 298 480 339 441 386 441 386S434 393 387 440C370 457 354 462 339 462 313 462 294 443 294 443L76 226C-36 337-32 564 141 712 229 786 302 828 384 828 429 828 476 815 530 788L711 970C711 970 752 998 804 998 837 998 875 987 911 951 923 939 943 919 947 915 1055 807 965 715 965 715S782 537 784 534C850 377 811 243 686 114 609 35 515 2 429 2L429 2Z"/></svg>